# xmcd CD database file
#
# Track frame offsets:
#	150
#	29532
#	51735
#	80995
#	116692
#	148440
#	203947
#	229977
#
# Disc length: 4365 seconds
#
# Revision: 0
# Processed by: cddbd v1.5.2PL0 Copyright (c) Steve Scherf et al.
# Submitted via: CDex 1.70beta2
#
DISCID=85110b08
DTITLE=Toshiko Akiyoshi - Eternal Best
DYEAR=1900
DGENRE=Jazz
TTITLE0=Long Yellow Road
TTITLE1=The FIrst Night
TTITLE2=Road Time Shuffle
TTITLE3=Sumie
TTITLE4=Salted Gingko Nuts
TTITLE5=Pollination from suite 'Four Seasons of Morita Village'
TTITLE6=China Remembered
TTITLE7=Suite 'Minamata' Peaceful Village Prosperity and Consequence Epilogue
EXTD=
EXTT0=
EXTT1=
EXTT2=
EXTT3=
EXTT4=
EXTT5=
EXTT6=
EXTT7=
PLAYORDER=
